<svg xmlns:ev="http://www.w3.org/2001/xml-events" xmlns="http://www.w3.org/2000/svg" xmlns:xlink="http://www.w3.org/1999/xlink" height="804" width="1132" viewBox="0 0 1132 804"><defs/><g transform="translate(5.5,5.5)" id="page1"><rect fill="#ffffff" y="0" x="0" height="794" width="1123"/><g transform="translate(391.89,340.16)" id="group1"><path fill-rule="nonzero" stroke-width="1" fill="#b4b5b5" d="M.0,.0L29.5,.0C33.2,.0,36.2,1.5,36.2,3.5L36.2,55.3C36.2,57.2,33.2,58.8,29.5,58.8L27.5,58.8C27.6,58.7,27.6,58.6,27.6,58.5L27.6,8.1C27.6,6.2,24.6,4.7,20.9,4.7L.0,4.7L.0,.0z" transform="translate(123.64,0.00)" stroke="#b4b5b5" id="shape2"/><path fill-rule="nonzero" stroke-width="1" fill="#f08300" d="M16.7,.0L62.7,.0C71.9,.0,79.4,3.9,79.4,8.6L79.4,8.6C79.4,13.4,71.9,17.3,62.7,17.3L16.7,17.3C7.5,17.3,.0,13.4,.0,8.6L.0,8.6C.0,3.9,7.5,.0,16.7,.0z" transform="translate(116.40,29.98)" stroke="#f08300" id="shape3"/><path fill-rule="nonzero" stroke-width="1" fill="#f9ca31" d="M.0,.0L51.7,.0L51.7,4.6L.0,4.6L.0,.0z" transform="translate(286.31,63.26)" stroke="#f9ca31" id="shape4"/><path fill-rule="nonzero" stroke-width="1" fill="#f9ca31" d="M.0,28.4C.0,12.7,69.3,.0,154.7,.0C240.1,.0,309.4,12.7,309.4,28.4C309.4,44.1,240.1,56.9,154.7,56.9C69.3,56.9,.0,44.1,.0,28.4z" transform="translate(-0.00,37.13)" stroke="#f9ca31" id="shape5"/><path fill-rule="nonzero" stroke-width="1" fill="#f08300" d="M.0,12.6C.0,5.6,10.9,.0,24.4,.0C37.9,.0,48.8,5.6,48.8,12.6C48.8,19.5,37.9,25.2,24.4,25.2C10.9,25.2,.0,19.5,.0,12.6z" transform="translate(57.42,53.18)" stroke="#f08300" id="shape6"/><path fill-rule="nonzero" stroke-width="1" fill="#007fcc" d="M.0,9.4C.0,4.2,8.2,.0,18.3,.0C28.4,.0,36.5,4.2,36.5,9.4C36.5,14.6,28.4,18.8,18.3,18.8C8.2,18.8,.0,14.6,.0,9.4z" transform="translate(63.56,56.35)" stroke="#007fcc" id="shape7"/><path fill-rule="nonzero" stroke-width="1" fill="#f08300" d="M.0,12.6C.0,5.6,10.9,.0,24.4,.0C37.9,.0,48.8,5.6,48.8,12.6C48.8,19.5,37.9,25.2,24.4,25.2C10.9,25.2,.0,19.5,.0,12.6z" transform="translate(130.29,53.18)" stroke="#f08300" id="shape8"/><path fill-rule="nonzero" stroke-width="1" fill="#007fcc" d="M.0,9.4C.0,4.2,8.2,.0,18.3,.0C28.4,.0,36.5,4.2,36.5,9.4C36.5,14.6,28.4,18.8,18.3,18.8C8.2,18.8,.0,14.6,.0,9.4z" transform="translate(136.42,56.35)" stroke="#007fcc" id="shape9"/><path fill-rule="nonzero" stroke-width="1" fill="#f08300" d="M.0,12.6C.0,5.6,10.9,.0,24.4,.0C37.9,.0,48.8,5.6,48.8,12.6C48.8,19.5,37.9,25.2,24.4,25.2C10.9,25.2,.0,19.5,.0,12.6z" transform="translate(203.15,53.18)" stroke="#f08300" id="shape10"/><path fill-rule="nonzero" stroke-width="1" fill="#007fcc" d="M.0,9.4C.0,4.2,8.2,.0,18.3,.0C28.4,.0,36.5,4.2,36.5,9.4C36.5,14.6,28.4,18.8,18.3,18.8C8.2,18.8,.0,14.6,.0,9.4z" transform="translate(209.29,56.35)" stroke="#007fcc" id="shape11"/><path fill-rule="nonzero" stroke-width="1" fill="#f08300" d="M2.3,11.4C5.8,4.5,12.2,-0.5,16.6,.0C21.0,.7,21.7,6.7,18.1,13.5C14.6,20.4,8.1,25.4,3.8,24.8C-0.6,24.2,-1.3,18.2,2.3,11.4z" transform="translate(329.24,42.52)" stroke="#f08300" id="shape12"/><path fill-rule="nonzero" stroke-width="1" fill="#f08300" d="M2.3,13.5C-1.3,6.7,-0.6,.7,3.8,.0C8.1,-0.5,14.6,4.5,18.1,11.4C21.7,18.2,21.0,24.2,16.6,24.8C12.2,25.4,5.8,20.4,2.3,13.5z" transform="translate(329.69,62.94)" stroke="#f08300" id="shape13"/></g></g></svg>